<?xml version="1.0" encoding="UTF-8" standalone="no"?>
<!DOCTYPE svg PUBLIC "-//W3C//DTD SVG 1.0//EN" "http://www.w3.org/TR/2001/PR-SVG-20010719/DTD/svg10.dtd">
<svg width="66cm" height="36cm" viewBox="-331 -298 1312 719" xmlns="http://www.w3.org/2000/svg" xmlns:xlink="http://www.w3.org/1999/xlink">
  <defs/>
  <g id="Background">
    <rect style="fill: #fdc0ff; fill-opacity: 1; stroke-opacity: 1; stroke-width: 2; stroke: #ab0097" x="460" y="-280" width="480" height="220" rx="0" ry="0"/>
    <text font-size="14.6756" style="fill: #000000; fill-opacity: 1; stroke: none;text-anchor:start;font-family:sans-serif;font-style:normal;font-weight:700" x="460" y="-283.461">
      <tspan x="460" y="-283.461">Content Creator Meta</tspan>
    </text>
    <rect style="fill: #ffe7ff; fill-opacity: 1; stroke-opacity: 1; stroke-width: 2; stroke-linejoin: round; stroke: #d53dc3" x="470" y="-188.34" width="140" height="94.5849" rx="20" ry="20"/>
    <text font-size="14.1111" style="fill: #000000; fill-opacity: 1; stroke: none;text-anchor:start;font-family:sans-serif;font-style:normal;font-weight:normal" x="470" y="-191.668">
      <tspan x="470" y="-191.668">Vargskelethor Joel</tspan>
    </text>
    <rect style="fill: #fdc0ff; fill-opacity: 1; stroke-opacity: 1; stroke-width: 2; stroke: #ab0097" x="60" y="20" width="540" height="400" rx="0" ry="0"/>
    <text font-size="14.6756" style="fill: #000000; fill-opacity: 1; stroke: none;text-anchor:start;font-family:sans-serif;font-style:normal;font-weight:700" x="60" y="16.5389">
      <tspan x="60" y="16.5389">Video Game Meta</tspan>
    </text>
    <rect style="fill: #ffe7ff; fill-opacity: 1; stroke-opacity: 1; stroke-width: 2; stroke-linejoin: round; stroke: #d53dc3" x="80" y="140" width="220" height="260" rx="20" ry="20"/>
    <text font-size="14.1111" style="fill: #000000; fill-opacity: 1; stroke: none;text-anchor:start;font-family:sans-serif;font-style:normal;font-weight:normal" x="80" y="136.672">
      <tspan x="80" y="136.672">Undertale</tspan>
    </text>
    <rect style="fill: #ffe7ff; fill-opacity: 1; stroke-opacity: 1; stroke-width: 2; stroke-linejoin: round; stroke: #d53dc3" x="320" y="54.054" width="240" height="260" rx="20" ry="20"/>
    <text font-size="14.1111" style="fill: #000000; fill-opacity: 1; stroke: none;text-anchor:start;font-family:sans-serif;font-style:normal;font-weight:normal" x="320" y="50.726">
      <tspan x="320" y="50.726">Super Mario 64</tspan>
    </text>
    <rect style="fill: #fdc0ff; fill-opacity: 1; stroke-opacity: 1; stroke-width: 2; stroke: #ab0097" x="640" y="0" width="340" height="420" rx="0" ry="0"/>
    <text font-size="14.6756" style="fill: #000000; fill-opacity: 1; stroke: none;text-anchor:start;font-family:sans-serif;font-style:normal;font-weight:700" x="640" y="-3.46108">
      <tspan x="640" y="-3.46108">Animated Series Meta</tspan>
    </text>
    <rect style="fill: #ffe7ff; fill-opacity: 1; stroke-opacity: 1; stroke-width: 2; stroke-linejoin: round; stroke: #d53dc3" x="660" y="40" width="260" height="157.725" rx="20" ry="20"/>
    <text font-size="14.1111" style="fill: #000000; fill-opacity: 1; stroke: none;text-anchor:start;font-family:sans-serif;font-style:normal;font-weight:normal" x="660" y="36.672">
      <tspan x="660" y="36.672">The Flintstones</tspan>
    </text>
    <rect style="fill: #ffe7ff; fill-opacity: 1; stroke-opacity: 1; stroke-width: 2; stroke-linejoin: round; stroke: #d53dc3" x="660" y="240" width="260" height="160" rx="20" ry="20"/>
    <text font-size="14.1111" style="fill: #000000; fill-opacity: 1; stroke: none;text-anchor:start;font-family:sans-serif;font-style:normal;font-weight:normal" x="660" y="236.672">
      <tspan x="660" y="236.672">Inspector Gadget</tspan>
    </text>
    <text font-size="14.1111" style="fill: #000000; fill-opacity: 1; stroke: none;text-anchor:start;font-family:sans-serif;font-style:normal;font-weight:normal" x="100" y="156.672">
      <tspan x="100" y="156.672">Megalovania</tspan>
    </text>
    <text font-size="14.1111" style="fill: #000000; fill-opacity: 1; stroke: none;text-anchor:start;font-family:sans-serif;font-style:normal;font-weight:normal" x="100" y="236.672">
      <tspan x="100" y="236.672">Another Medium</tspan>
    </text>
    <g>
      <rect style="fill: #ff8686; fill-opacity: 1; stroke-opacity: 1; stroke-width: 2; stroke: #000000" x="100" y="160" width="190" height="60" rx="0" ry="0"/>
      <text font-size="12.8" style="fill: #000000; fill-opacity: 1; stroke: none;text-anchor:middle;font-family:sans-serif;font-style:normal;font-weight:normal" x="195" y="193.881">
        <tspan x="195" y="193.881"></tspan>
      </text>
    </g>
    <g>
      <path style="fill: #f7f5cc; fill-opacity: 1; stroke-opacity: 1; stroke-width: 2; stroke: #000000" fill-rule="evenodd" d="M 195.28 170 L 271.68,170 L 286.96,190 L 271.68,210 L 195.28,210 L 180,190 L 195.28,170z"/>
      <text font-size="12.8" style="fill: #000000; fill-opacity: 1; stroke: none;text-anchor:middle;font-family:sans-serif;font-style:normal;font-weight:normal" x="233.48" y="193.881">
        <tspan x="233.48" y="193.881">Boss Music</tspan>
      </text>
    </g>
    <text font-size="14.1111" style="fill: #000000; fill-opacity: 1; stroke: none;text-anchor:start;font-family:sans-serif;font-style:normal;font-weight:normal" x="110" y="316.672">
      <tspan x="110" y="316.672">Sans</tspan>
    </text>
    <g>
      <rect style="fill: #ff8686; fill-opacity: 1; stroke-opacity: 1; stroke-width: 2; stroke: #000000" x="340" y="74.054" width="200" height="60" rx="0" ry="0"/>
      <text font-size="12.8" style="fill: #000000; fill-opacity: 1; stroke: none;text-anchor:middle;font-family:sans-serif;font-style:normal;font-weight:normal" x="440" y="107.935">
        <tspan x="440" y="107.935"></tspan>
      </text>
    </g>
    <text font-size="14.1111" style="fill: #000000; fill-opacity: 1; stroke: none;text-anchor:start;font-family:sans-serif;font-style:normal;font-weight:normal" x="340" y="70.726">
      <tspan x="340" y="70.726">Slider</tspan>
    </text>
    <g>
      <rect style="fill: #ff8686; fill-opacity: 1; stroke-opacity: 1; stroke-width: 2; stroke: #000000" x="340" y="154.054" width="200" height="60" rx="0" ry="0"/>
      <text font-size="12.8" style="fill: #000000; fill-opacity: 1; stroke: none;text-anchor:middle;font-family:sans-serif;font-style:normal;font-weight:normal" x="440" y="187.935">
        <tspan x="440" y="187.935"></tspan>
      </text>
    </g>
    <text font-size="14.1111" style="fill: #000000; fill-opacity: 1; stroke: none;text-anchor:start;font-family:sans-serif;font-style:normal;font-weight:normal" x="340" y="150.726">
      <tspan x="340" y="150.726">Inside the Castle Walls</tspan>
    </text>
    <g>
      <rect style="fill: #ff8686; fill-opacity: 1; stroke-opacity: 1; stroke-width: 2; stroke: #000000" x="340" y="234.054" width="190" height="60" rx="0" ry="0"/>
      <text font-size="12.8" style="fill: #000000; fill-opacity: 1; stroke: none;text-anchor:middle;font-family:sans-serif;font-style:normal;font-weight:normal" x="435" y="267.935">
        <tspan x="435" y="267.935"></tspan>
      </text>
    </g>
    <g>
      <path style="fill: #f7f5cc; fill-opacity: 1; stroke-opacity: 1; stroke-width: 2; stroke: #000000" fill-rule="evenodd" d="M 359.9 244.054 L 409.4,244.054 L 419.3,264.054 L 409.4,284.054 L 359.9,284.054 L 350,264.054 L 359.9,244.054z"/>
      <text font-size="12.8" style="fill: #000000; fill-opacity: 1; stroke: none;text-anchor:middle;font-family:sans-serif;font-style:normal;font-weight:700" x="384.65" y="267.935">
        <tspan x="384.65" y="267.935">Meme</tspan>
      </text>
    </g>
    <g>
      <path style="fill: #f7f5cc; fill-opacity: 1; stroke-opacity: 1; stroke-width: 2; stroke: #000000" fill-rule="evenodd" d="M 443.43 244.054 L 510.58,244.054 L 524.01,264.054 L 510.58,284.054 L 443.43,284.054 L 430,264.054 L 443.43,244.054z"/>
      <text font-size="12.8" style="fill: #000000; fill-opacity: 1; stroke: none;text-anchor:middle;font-family:sans-serif;font-style:normal;font-weight:normal" x="477.005" y="267.935">
        <tspan x="477.005" y="267.935">Voiceline</tspan>
      </text>
    </g>
    <text font-size="14.1111" style="fill: #000000; fill-opacity: 1; stroke: none;text-anchor:start;font-family:sans-serif;font-style:normal;font-weight:normal" x="340" y="230.726">
      <tspan x="340" y="230.726">"So Long-a Gay Bowser"</tspan>
    </text>
    <g>
      <rect style="fill: #ff8686; fill-opacity: 1; stroke-opacity: 1; stroke-width: 2; stroke: #000000" x="673.276" y="66.909" width="220" height="60" rx="0" ry="0"/>
      <text font-size="12.8" style="fill: #000000; fill-opacity: 1; stroke: none;text-anchor:middle;font-family:sans-serif;font-style:normal;font-weight:normal" x="783.276" y="100.79">
        <tspan x="783.276" y="100.79"></tspan>
      </text>
    </g>
    <g>
      <path style="fill: #f7f5cc; fill-opacity: 1; stroke-opacity: 1; stroke-width: 2; stroke: #000000" fill-rule="evenodd" d="M 701.847 76.909 L 794.705,76.909 L 813.276,96.909 L 794.705,116.909 L 701.847,116.909 L 683.276,96.909 L 701.847,76.909z"/>
      <text font-size="12.8" style="fill: #000000; fill-opacity: 1; stroke: none;text-anchor:middle;font-family:sans-serif;font-style:normal;font-weight:700" x="748.276" y="100.79">
        <tspan x="748.276" y="100.79">Theme Song</tspan>
      </text>
    </g>
    <g>
      <path style="fill: #f7f5cc; fill-opacity: 1; stroke-opacity: 1; stroke-width: 2; stroke: #000000" fill-rule="evenodd" d="M 831.847 76.909 L 874.705,76.909 L 883.276,96.909 L 874.705,116.909 L 831.847,116.909 L 823.276,96.909 L 831.847,76.909z"/>
      <text font-size="12.8" style="fill: #000000; fill-opacity: 1; stroke: none;text-anchor:middle;font-family:sans-serif;font-style:normal;font-weight:normal" x="853.276" y="100.79">
        <tspan x="853.276" y="100.79">Song</tspan>
      </text>
    </g>
    <text font-size="14.1111" style="fill: #000000; fill-opacity: 1; stroke: none;text-anchor:start;font-family:sans-serif;font-style:normal;font-weight:normal" x="673.276" y="63.581">
      <tspan x="673.276" y="63.581">Meet the Flintstones</tspan>
    </text>
    <text font-size="14.1111" style="fill: #000000; fill-opacity: 1; stroke: none;text-anchor:start;font-family:sans-serif;font-style:normal;font-weight:normal" x="490" y="-171.668">
      <tspan x="490" y="-171.668">7 GRAND DAD</tspan>
    </text>
    <rect style="fill: #ffe7ff; fill-opacity: 1; stroke-opacity: 1; stroke-width: 2; stroke-linejoin: round; stroke: #d53dc3" x="440" y="340" width="100" height="60" rx="20" ry="20"/>
    <text font-size="14.1111" style="fill: #000000; fill-opacity: 1; stroke: none;text-anchor:start;font-family:sans-serif;font-style:normal;font-weight:normal" x="440" y="336.672">
      <tspan x="440" y="336.672">Bootleg Games</tspan>
    </text>
    <ellipse style="fill: #ff8686; fill-opacity: 1; stroke-opacity: 1; stroke-width: 2; stroke: #000000" cx="497.5" cy="367.5" rx="17.5" ry="17.5"/>
    <g>
      <path style="fill: none; stroke-opacity: 1; stroke-width: 2; stroke: #000000" d="M 565 -108.34 C 560,21.66 640,360 525.98,366.841"/>
      <polygon style="fill: #000000; fill-opacity: 1; stroke-opacity: 1; stroke-width: 2; stroke: #000000" fill-rule="evenodd" points="525.681,361.85 515.998,367.44 526.28,371.832 "/>
    </g>
    <g>
      <rect style="fill: #ff8686; fill-opacity: 1; stroke-opacity: 1; stroke-width: 2; stroke: #000000" x="490" y="-168.34" width="100" height="60" rx="0" ry="0"/>
      <text font-size="12.8" style="fill: #000000; fill-opacity: 1; stroke: none;text-anchor:middle;font-family:sans-serif;font-style:normal;font-weight:normal" x="540" y="-134.458">
        <tspan x="540" y="-134.458"></tspan>
      </text>
      <path style="fill: #f7f5cc; fill-opacity: 1; stroke-opacity: 1; stroke-width: 2; stroke: #000000" fill-rule="evenodd" d="M 509.1 -158.34 L 554.6,-158.34 L 563.7,-138.34 L 554.6,-118.34 L 509.1,-118.34 L 500,-138.34 L 509.1,-158.34z"/>
      <text font-size="12.8" style="fill: #000000; fill-opacity: 1; stroke: none;text-anchor:middle;font-family:sans-serif;font-style:normal;font-weight:700" x="531.85" y="-134.458">
        <tspan x="531.85" y="-134.458">Meme</tspan>
      </text>
    </g>
    <ellipse style="fill: #ff8686; fill-opacity: 1; stroke-opacity: 1; stroke-width: 2; stroke: #000000" cx="710.776" cy="164.409" rx="17.5" ry="17.5"/>
    <g>
      <path style="fill: none; stroke-opacity: 1; stroke-width: 2; stroke: #000000" d="M 565 -108.34 C 570,-8.33996 636.836,164.409 682.276,164.409"/>
      <polygon style="fill: #000000; fill-opacity: 1; stroke-opacity: 1; stroke-width: 2; stroke: #000000" fill-rule="evenodd" points="682.276,169.409 692.276,164.409 682.276,159.409 "/>
    </g>
    <g>
      <rect style="fill: #ff8686; fill-opacity: 1; stroke-opacity: 1; stroke-width: 2; stroke: #000000" x="680" y="268.408" width="220" height="60" rx="0" ry="0"/>
      <text font-size="12.8" style="fill: #000000; fill-opacity: 1; stroke: none;text-anchor:middle;font-family:sans-serif;font-style:normal;font-weight:normal" x="790" y="302.289">
        <tspan x="790" y="302.289"></tspan>
      </text>
    </g>
    <g>
      <path style="fill: #f7f5cc; fill-opacity: 1; stroke-opacity: 1; stroke-width: 2; stroke: #000000" fill-rule="evenodd" d="M 708.571 278.408 L 801.429,278.408 L 820,298.408 L 801.429,318.408 L 708.571,318.408 L 690,298.408 L 708.571,278.408z"/>
      <text font-size="12.8" style="fill: #000000; fill-opacity: 1; stroke: none;text-anchor:middle;font-family:sans-serif;font-style:normal;font-weight:700" x="755" y="302.289">
        <tspan x="755" y="302.289">Theme Song</tspan>
      </text>
    </g>
    <g>
      <path style="fill: #f7f5cc; fill-opacity: 1; stroke-opacity: 1; stroke-width: 2; stroke: #000000" fill-rule="evenodd" d="M 838.571 278.408 L 881.429,278.408 L 890,298.408 L 881.429,318.408 L 838.571,318.408 L 830,298.408 L 838.571,278.408z"/>
      <text font-size="12.8" style="fill: #000000; fill-opacity: 1; stroke: none;text-anchor:middle;font-family:sans-serif;font-style:normal;font-weight:normal" x="860" y="302.289">
        <tspan x="860" y="302.289">Song</tspan>
      </text>
    </g>
    <text font-size="14.1111" style="fill: #000000; fill-opacity: 1; stroke: none;text-anchor:start;font-family:sans-serif;font-style:normal;font-weight:normal" x="680" y="265.08">
      <tspan x="680" y="265.08">Inspector Gadget</tspan>
    </text>
    <rect style="fill: #ffe7ff; fill-opacity: 1; stroke-opacity: 1; stroke-width: 2; stroke-linejoin: round; stroke: #d53dc3" x="630" y="-249.17" width="290" height="170" rx="20" ry="20"/>
    <text font-size="14.1111" style="fill: #000000; fill-opacity: 1; stroke: none;text-anchor:start;font-family:sans-serif;font-style:normal;font-weight:normal" x="630" y="-252.498">
      <tspan x="630" y="-252.498">Channel Awesome</tspan>
    </text>
    <g>
      <rect style="fill: #ff8686; fill-opacity: 1; stroke-opacity: 1; stroke-width: 2; stroke: #000000" x="650" y="-229.17" width="260" height="60" rx="0" ry="0"/>
      <text font-size="12.8" style="fill: #000000; fill-opacity: 1; stroke: none;text-anchor:middle;font-family:sans-serif;font-style:normal;font-weight:normal" x="780" y="-195.289">
        <tspan x="780" y="-195.289"></tspan>
      </text>
    </g>
    <g>
      <path style="fill: #f7f5cc; fill-opacity: 1; stroke-opacity: 1; stroke-width: 2; stroke: #000000" fill-rule="evenodd" d="M 678.571 -219.17 L 771.429,-219.17 L 790,-199.17 L 771.429,-179.17 L 678.571,-179.17 L 660,-199.17 L 678.571,-219.17z"/>
      <text font-size="12.8" style="fill: #000000; fill-opacity: 1; stroke: none;text-anchor:middle;font-family:sans-serif;font-style:normal;font-weight:700" x="725" y="-195.289">
        <tspan x="725" y="-195.289">Video Series</tspan>
      </text>
    </g>
    <g>
      <path style="fill: #f7f5cc; fill-opacity: 1; stroke-opacity: 1; stroke-width: 2; stroke: #000000" fill-rule="evenodd" d="M 813.806 -219.17 L 883.019,-219.17 L 896.861,-199.17 L 883.019,-179.17 L 813.806,-179.17 L 799.964,-199.17 L 813.806,-219.17z"/>
      <text font-size="12.8" style="fill: #000000; fill-opacity: 1; stroke: none;text-anchor:middle;font-family:sans-serif;font-style:normal;font-weight:normal" x="848.413" y="-195.289">
        <tspan x="848.413" y="-195.289">Character</tspan>
      </text>
    </g>
    <text font-size="14.1111" style="fill: #000000; fill-opacity: 1; stroke: none;text-anchor:start;font-family:sans-serif;font-style:normal;font-weight:normal" x="650" y="-232.498">
      <tspan x="650" y="-232.498">Nostalgia Critic</tspan>
    </text>
    <g>
      <rect style="fill: #ff8686; fill-opacity: 1; stroke-opacity: 1; stroke-width: 2; stroke: #000000" x="690" y="-149.17" width="180.54" height="60" rx="0" ry="0"/>
      <text font-size="12.8" style="fill: #000000; fill-opacity: 1; stroke: none;text-anchor:middle;font-family:sans-serif;font-style:normal;font-weight:normal" x="780.27" y="-115.289">
        <tspan x="780.27" y="-115.289"></tspan>
      </text>
    </g>
    <g>
      <path style="fill: #f7f5cc; fill-opacity: 1; stroke-opacity: 1; stroke-width: 2; stroke: #000000" fill-rule="evenodd" d="M 710.077 -139.17 L 760.463,-139.17 L 770.54,-119.17 L 760.463,-99.17 L 710.077,-99.17 L 700,-119.17 L 710.077,-139.17z"/>
      <text font-size="12.8" style="fill: #000000; fill-opacity: 1; stroke: none;text-anchor:middle;font-family:sans-serif;font-style:normal;font-weight:700" x="735.27" y="-115.289">
        <tspan x="735.27" y="-115.289">Meme</tspan>
      </text>
    </g>
    <g>
      <path style="fill: #f7f5cc; fill-opacity: 1; stroke-opacity: 1; stroke-width: 2; stroke: #000000" fill-rule="evenodd" d="M 799.111 -138.341 L 841.969,-138.341 L 850.54,-118.341 L 841.969,-98.341 L 799.111,-98.341 L 790.54,-118.341 L 799.111,-138.341z"/>
      <text font-size="12.8" style="fill: #000000; fill-opacity: 1; stroke: none;text-anchor:middle;font-family:sans-serif;font-style:normal;font-weight:normal" x="820.54" y="-114.46">
        <tspan x="820.54" y="-114.46">Video</tspan>
      </text>
    </g>
    <text font-size="14.1111" style="fill: #000000; fill-opacity: 1; stroke: none;text-anchor:start;font-family:sans-serif;font-style:normal;font-weight:normal" x="690" y="-152.498">
      <tspan x="690" y="-152.498">Minecraft With Gadget</tspan>
    </text>
    <ellipse style="fill: #ff8686; fill-opacity: 1; stroke-opacity: 1; stroke-width: 2; stroke: #000000" cx="877.5" cy="365.21" rx="17.5" ry="17.5"/>
    <g>
      <path style="fill: none; stroke-opacity: 1; stroke-width: 2; stroke: #000000" d="M 870.54 -104.17 C 940,-89.17 960,367.71 905.992,365.633"/>
      <polygon style="fill: #000000; fill-opacity: 1; stroke-opacity: 1; stroke-width: 2; stroke: #000000" fill-rule="evenodd" points="906.184,360.636 895.999,365.248 905.8,370.629 "/>
    </g>
    <rect style="fill: #fdc0ff; fill-opacity: 1; stroke-opacity: 1; stroke-width: 2; stroke: #ab0097" x="-260" y="-280" width="260" height="560" rx="0" ry="0"/>
    <text font-size="14.6756" style="fill: #000000; fill-opacity: 1; stroke: none;text-anchor:start;font-family:sans-serif;font-style:normal;font-weight:700" x="-260" y="-283.461">
      <tspan x="-260" y="-283.461">Music Meta</tspan>
    </text>
    <rect style="fill: #ffe7ff; fill-opacity: 1; stroke-opacity: 1; stroke-width: 2; stroke-linejoin: round; stroke: #d53dc3" x="-100" y="-260" width="80" height="80" rx="20" ry="20"/>
    <text font-size="14.1111" style="fill: #000000; fill-opacity: 1; stroke: none;text-anchor:start;font-family:sans-serif;font-style:normal;font-weight:normal" x="-100" y="-263.328">
      <tspan x="-100" y="-263.328">80s Music</tspan>
    </text>
    <rect style="fill: #ffe7ff; fill-opacity: 1; stroke-opacity: 1; stroke-width: 2; stroke-linejoin: round; stroke: #d53dc3" x="-210" y="-160" width="200" height="100" rx="20" ry="20"/>
    <text font-size="14.1111" style="fill: #000000; fill-opacity: 1; stroke: none;text-anchor:start;font-family:sans-serif;font-style:normal;font-weight:normal" x="-210" y="-163.328">
      <tspan x="-210" y="-163.328">K-POP</tspan>
    </text>
    <rect style="fill: #fdc0ff; fill-opacity: 1; stroke-opacity: 1; stroke-width: 2; stroke: #ab0097" x="40" y="-280" width="380" height="260" rx="0" ry="0"/>
    <text font-size="14.6756" style="fill: #000000; fill-opacity: 1; stroke: none;text-anchor:start;font-family:sans-serif;font-style:normal;font-weight:700" x="40" y="-283.461">
      <tspan x="40" y="-283.461">Music Artists Meta</tspan>
    </text>
    <rect style="fill: #ffe7ff; fill-opacity: 1; stroke-opacity: 1; stroke-width: 2; stroke-linejoin: round; stroke: #d53dc3" x="260" y="-260" width="140" height="180" rx="20" ry="20"/>
    <text font-size="14.1111" style="fill: #000000; fill-opacity: 1; stroke: none;text-anchor:start;font-family:sans-serif;font-style:normal;font-weight:normal" x="260" y="-263.328">
      <tspan x="260" y="-263.328">Psy</tspan>
    </text>
    <rect style="fill: #ffe7ff; fill-opacity: 1; stroke-opacity: 1; stroke-width: 2; stroke-linejoin: round; stroke: #d53dc3" x="60" y="-260" width="140" height="100" rx="20" ry="20"/>
    <text font-size="14.1111" style="fill: #000000; fill-opacity: 1; stroke: none;text-anchor:start;font-family:sans-serif;font-style:normal;font-weight:normal" x="60" y="-263.328">
      <tspan x="60" y="-263.328">Fleetwood Mac</tspan>
    </text>
    <ellipse style="fill: #ff8686; fill-opacity: 1; stroke-opacity: 1; stroke-width: 2; stroke: #000000" cx="-52.5" cy="-122.5" rx="17.5" ry="17.5"/>
    <text font-size="14.1111" style="fill: #000000; fill-opacity: 1; stroke: none;text-anchor:start;font-family:sans-serif;font-style:normal;font-weight:normal" x="280" y="-243.328">
      <tspan x="280" y="-243.328">Gangnam Style</tspan>
    </text>
    <g>
      <rect style="fill: #ff8686; fill-opacity: 1; stroke-opacity: 1; stroke-width: 2; stroke: #000000" x="280" y="-240" width="100" height="60" rx="0" ry="0"/>
      <text font-size="12.8" style="fill: #000000; fill-opacity: 1; stroke: none;text-anchor:middle;font-family:sans-serif;font-style:normal;font-weight:normal" x="330" y="-206.119">
        <tspan x="330" y="-206.119"></tspan>
      </text>
    </g>
    <g>
      <path style="fill: #f7f5cc; fill-opacity: 1; stroke-opacity: 1; stroke-width: 2; stroke: #000000" fill-rule="evenodd" d="M 296.28 -230 L 338.53,-230 L 346.98,-210 L 338.53,-190 L 296.28,-190 L 287.83,-210 L 296.28,-230z"/>
      <text font-size="12.8" style="fill: #000000; fill-opacity: 1; stroke: none;text-anchor:middle;font-family:sans-serif;font-style:normal;font-weight:700" x="317.405" y="-206.119">
        <tspan x="317.405" y="-206.119">Song</tspan>
      </text>
    </g>
    <text font-size="14.1111" style="fill: #000000; fill-opacity: 1; stroke: none;text-anchor:start;font-family:sans-serif;font-style:normal;font-weight:normal" x="80" y="-234.158">
      <tspan x="80" y="-234.158">The Chain</tspan>
    </text>
    <ellipse style="fill: #ff8686; fill-opacity: 1; stroke-opacity: 1; stroke-width: 2; stroke: #000000" cx="-62.5" cy="-222.5" rx="17.5" ry="17.5"/>
    <g>
      <rect style="fill: #ff8686; fill-opacity: 1; stroke-opacity: 1; stroke-width: 2; stroke: #000000" x="-190" y="-134.498" width="100" height="60" rx="0" ry="0"/>
      <text font-size="12.8" style="fill: #000000; fill-opacity: 1; stroke: none;text-anchor:middle;font-family:sans-serif;font-style:normal;font-weight:normal" x="-140" y="-100.617">
        <tspan x="-140" y="-100.617"></tspan>
      </text>
    </g>
    <g>
      <path style="fill: #f7f5cc; fill-opacity: 1; stroke-opacity: 1; stroke-width: 2; stroke: #000000" fill-rule="evenodd" d="M -173.769 -124.539 L -131.519,-124.539 L -123.069,-104.539 L -131.519,-84.5388 L -173.769,-84.5388 L -182.219,-104.539 L -173.769,-124.539z"/>
      <text font-size="12.8" style="fill: #000000; fill-opacity: 1; stroke: none;text-anchor:middle;font-family:sans-serif;font-style:normal;font-weight:700" x="-152.644" y="-100.658">
        <tspan x="-152.644" y="-100.658">Song</tspan>
      </text>
    </g>
    <text font-size="14.1111" style="fill: #000000; fill-opacity: 1; stroke: none;text-anchor:start;font-family:sans-serif;font-style:normal;font-weight:normal" x="-190" y="-137.826">
      <tspan x="-190" y="-137.826">Gentleman</tspan>
    </text>
    <g>
      <path style="fill: none; stroke-opacity: 1; stroke-width: 2; stroke: #000000" d="M 280 -195 C 249.506,-197.196 254.088,-154.307 138.847,-153.71 C 23.606,-153.113 29.095,-121.89 -24.0005,-122.395"/>
      <polygon style="fill: #000000; fill-opacity: 1; stroke-opacity: 1; stroke-width: 2; stroke: #000000" fill-rule="evenodd" points="-23.9529,-127.395 -34,-122.49 -24.048,-117.396 "/>
    </g>
    <ellipse style="fill: #ff8686; fill-opacity: 1; stroke-opacity: 1; stroke-width: 2; stroke: #000000" cx="297.5" cy="-142.5" rx="17.5" ry="17.5"/>
    <g>
      <path style="fill: none; stroke-opacity: 1; stroke-width: 2; stroke: #000000" d="M 80 -185.83 C 10,-180 20,-220 -34.0081,-222.077"/>
      <polygon style="fill: #000000; fill-opacity: 1; stroke-opacity: 1; stroke-width: 2; stroke: #000000" fill-rule="evenodd" points="-33.816,-227.074 -44.0007,-222.462 -34.2003,-217.081 "/>
    </g>
    <rect style="fill: #ffe7ff; fill-opacity: 1; stroke-opacity: 1; stroke-width: 2; stroke-linejoin: round; stroke: #d53dc3" x="-100" y="30" width="80" height="230" rx="20" ry="20"/>
    <text font-size="14.1111" style="fill: #000000; fill-opacity: 1; stroke: none;text-anchor:start;font-family:sans-serif;font-style:normal;font-weight:normal" x="-100" y="26.672">
      <tspan x="-100" y="26.672">VGM</tspan>
    </text>
    <ellipse style="fill: #ff8686; fill-opacity: 1; stroke-opacity: 1; stroke-width: 2; stroke: #000000" cx="-61.875" cy="168.125" rx="18.125" ry="18.125"/>
    <text font-size="14.1111" style="fill: #000000; fill-opacity: 1; stroke: none;text-anchor:start;font-family:sans-serif;font-style:normal;font-weight:normal" x="-330" y="306.672">
      <tspan x="-330" y="306.672">LEGEND:</tspan>
    </text>
    <rect style="fill: #ffffff; fill-opacity: 1; stroke-opacity: 1; stroke-width: 2; stroke: #000000" x="-330" y="310" width="360" height="110" rx="0" ry="0"/>
    <g>
      <rect style="fill: #ff8686; fill-opacity: 1; stroke-opacity: 1; stroke-width: 2; stroke: #000000" x="-210" y="320" width="60" height="40" rx="0" ry="0"/>
      <text font-size="12.8" style="fill: #000000; fill-opacity: 1; stroke: none;text-anchor:middle;font-family:sans-serif;font-style:normal;font-weight:normal" x="-180" y="343.881">
        <tspan x="-180" y="343.881">Joke</tspan>
      </text>
    </g>
    <g>
      <path style="fill: #f7f5cc; fill-opacity: 1; stroke-opacity: 1; stroke-width: 2; stroke: #000000" fill-rule="evenodd" d="M -282.329 320 L -243.971,320 L -236.3,340 L -243.971,360 L -282.329,360 L -290,340 L -282.329,320z"/>
      <text font-size="12.8" style="fill: #000000; fill-opacity: 1; stroke: none;text-anchor:middle;font-family:sans-serif;font-style:normal;font-weight:normal" x="-263.15" y="343.881">
        <tspan x="-263.15" y="343.881">Tag</tspan>
      </text>
    </g>
    <g>
      <rect style="fill: #ffe7ff; fill-opacity: 1; stroke-opacity: 1; stroke-width: 2; stroke: #000000" x="-130" y="320" width="84.35" height="40" rx="12" ry="12"/>
      <text font-size="12.8" style="fill: #000000; fill-opacity: 1; stroke: none;text-anchor:middle;font-family:sans-serif;font-style:normal;font-weight:normal" x="-87.825" y="343.881">
        <tspan x="-87.825" y="343.881">Meta Joke</tspan>
      </text>
    </g>
    <g>
      <rect style="fill: #fdc0ff; fill-opacity: 1; stroke-opacity: 1; stroke-width: 2; stroke: #000000" x="-34.3" y="320" width="53.8" height="40" rx="0" ry="0"/>
      <text font-size="12.8" style="fill: #000000; fill-opacity: 1; stroke: none;text-anchor:middle;font-family:sans-serif;font-style:normal;font-weight:normal" x="-7.4" y="343.881">
        <tspan x="-7.4" y="343.881">Meta</tspan>
      </text>
    </g>
    <ellipse style="fill: #ff8686; fill-opacity: 1; stroke-opacity: 1; stroke-width: 2; stroke: #000000" cx="-135" cy="395" rx="15" ry="15"/>
    <text font-size="12.8" style="fill: #000000; fill-opacity: 1; stroke: none;text-anchor:start;font-family:sans-serif;font-style:normal;font-weight:normal" x="-116" y="392">
      <tspan x="-116" y="392">Joke shares another</tspan>
      <tspan x="-116" y="408">Meta Joke</tspan>
    </text>
    <g>
      <path style="fill: none; stroke-opacity: 1; stroke-width: 2; stroke: #000000" d="M -180 360 C -180,390 -170,393.5 -160.969,394.177"/>
      <polygon style="fill: #000000; fill-opacity: 1; stroke-opacity: 1; stroke-width: 2; stroke: #000000" fill-rule="evenodd" points="-161.343,399.163 -150.997,394.925 -160.595,389.191 "/>
    </g>
    <g>
      <path style="fill: none; stroke-opacity: 1; stroke-width: 2; stroke: #000000" d="M 100 175 C 65.14,175 -8.89,168.125 -32.75,168.125"/>
      <polygon style="fill: #000000; fill-opacity: 1; stroke-opacity: 1; stroke-width: 2; stroke: #000000" fill-rule="evenodd" points="-32.75,163.125 -42.75,168.125 -32.75,173.125 "/>
    </g>
    <ellipse style="fill: #ff8686; fill-opacity: 1; stroke-opacity: 1; stroke-width: 2; stroke: #000000" cx="-62.5" cy="67.5" rx="17.5" ry="17.5"/>
    <ellipse style="fill: #ff8686; fill-opacity: 1; stroke-opacity: 1; stroke-width: 2; stroke: #000000" cx="-62.5" cy="117.5" rx="17.5" ry="17.5"/>
    <ellipse style="fill: #ff8686; fill-opacity: 1; stroke-opacity: 1; stroke-width: 2; stroke: #000000" cx="-62.5" cy="217.5" rx="17.5" ry="17.5"/>
    <g>
      <path style="fill: none; stroke-opacity: 1; stroke-width: 2; stroke: #000000" d="M 100 270 C 65.14,270 -10.14,217.5 -34,217.5"/>
      <polygon style="fill: #000000; fill-opacity: 1; stroke-opacity: 1; stroke-width: 2; stroke: #000000" fill-rule="evenodd" points="-34,212.5 -44,217.5 -34,222.5 "/>
    </g>
    <g>
      <path style="fill: none; stroke-opacity: 1; stroke-width: 2; stroke: #000000" d="M 340 104.054 C 193.09,104.054 102.886,67.5 -33.0239,67.5"/>
      <polygon style="fill: #000000; fill-opacity: 1; stroke-opacity: 1; stroke-width: 2; stroke: #000000" fill-rule="evenodd" points="-33.0239,62.5 -43.0239,67.5 -33.0239,72.5 "/>
    </g>
    <g>
      <path style="fill: none; stroke-opacity: 1; stroke-width: 2; stroke: #000000" d="M 340 184.054 C 240,180 378.486,109.672 -33.0162,116.977"/>
      <polygon style="fill: #000000; fill-opacity: 1; stroke-opacity: 1; stroke-width: 2; stroke: #000000" fill-rule="evenodd" points="-33.105,111.977 -43.0147,117.154 -32.9275,121.976 "/>
    </g>
    <rect style="fill: #ffe7ff; fill-opacity: 1; stroke-opacity: 1; stroke-width: 2; stroke-linejoin: round; stroke: #d53dc3" x="60" y="-130" width="160" height="100" rx="20" ry="20"/>
    <text font-size="14.1111" style="fill: #000000; fill-opacity: 1; stroke: none;text-anchor:start;font-family:sans-serif;font-style:normal;font-weight:normal" x="60" y="-133.328">
      <tspan x="60" y="-133.328">Maroon 5</tspan>
    </text>
    <rect style="fill: #ffe7ff; fill-opacity: 1; stroke-opacity: 1; stroke-width: 2; stroke-linejoin: round; stroke: #d53dc3" x="-250" y="-40" width="130" height="110" rx="20" ry="20"/>
    <text font-size="14.1111" style="fill: #000000; fill-opacity: 1; stroke: none;text-anchor:start;font-family:sans-serif;font-style:normal;font-weight:normal" x="-250" y="-43.328">
      <tspan x="-250" y="-43.328">2000s Music</tspan>
    </text>
    <text font-size="14.1111" style="fill: #000000; fill-opacity: 1; stroke: none;text-anchor:start;font-family:sans-serif;font-style:normal;font-weight:normal" x="-230" y="-13.328">
      <tspan x="-230" y="-13.328">This Love</tspan>
    </text>
    <g>
      <rect style="fill: #ff8686; fill-opacity: 1; stroke-opacity: 1; stroke-width: 2; stroke: #000000" x="-230" y="-10" width="80" height="60" rx="0" ry="0"/>
      <text font-size="12.8" style="fill: #000000; fill-opacity: 1; stroke: none;text-anchor:middle;font-family:sans-serif;font-style:normal;font-weight:normal" x="-190" y="23.8813">
        <tspan x="-190" y="23.8813"></tspan>
      </text>
    </g>
    <g>
      <path style="fill: #f7f5cc; fill-opacity: 1; stroke-opacity: 1; stroke-width: 2; stroke: #000000" fill-rule="evenodd" d="M -213.226 1.67565 L -170.976,1.67565 L -162.526,21.6757 L -170.976,41.6757 L -213.226,41.6757 L -221.676,21.6757 L -213.226,1.67565z"/>
      <text font-size="12.8" style="fill: #000000; fill-opacity: 1; stroke: none;text-anchor:middle;font-family:sans-serif;font-style:normal;font-weight:700" x="-192.101" y="25.5569">
        <tspan x="-192.101" y="25.5569">Song</tspan>
      </text>
    </g>
    <rect style="fill: #ffe7ff; fill-opacity: 1; stroke-opacity: 1; stroke-width: 2; stroke-linejoin: round; stroke: #d53dc3" x="-230" y="-260" width="100" height="70" rx="20" ry="20"/>
    <text font-size="14.1111" style="fill: #000000; fill-opacity: 1; stroke: none;text-anchor:start;font-family:sans-serif;font-style:normal;font-weight:normal" x="-230" y="-263.328">
      <tspan x="-230" y="-263.328">2010s Music</tspan>
    </text>
    <g>
      <rect style="fill: #ff8686; fill-opacity: 1; stroke-opacity: 1; stroke-width: 2; stroke: #000000" x="80" y="-105.46" width="80" height="60" rx="0" ry="0"/>
      <text font-size="12.8" style="fill: #000000; fill-opacity: 1; stroke: none;text-anchor:middle;font-family:sans-serif;font-style:normal;font-weight:normal" x="120" y="-71.5783">
        <tspan x="120" y="-71.5783"></tspan>
      </text>
      <path style="fill: #f7f5cc; fill-opacity: 1; stroke-opacity: 1; stroke-width: 2; stroke: #000000" fill-rule="evenodd" d="M 96.7744 -93.7838 L 139.024,-93.7838 L 147.474,-73.7838 L 139.024,-53.7838 L 96.7744,-53.7838 L 88.3244,-73.7838 L 96.7744,-93.7838z"/>
      <text font-size="12.8" style="fill: #000000; fill-opacity: 1; stroke: none;text-anchor:middle;font-family:sans-serif;font-style:normal;font-weight:700" x="117.899" y="-69.9026">
        <tspan x="117.899" y="-69.9026">Song</tspan>
      </text>
    </g>
    <text font-size="14.1111" style="fill: #000000; fill-opacity: 1; stroke: none;text-anchor:start;font-family:sans-serif;font-style:normal;font-weight:normal" x="80" y="-108.788">
      <tspan x="80" y="-108.788">Misery</tspan>
    </text>
    <g>
      <rect style="fill: #ff8686; fill-opacity: 1; stroke-opacity: 1; stroke-width: 2; stroke: #000000" x="80" y="-230.83" width="80" height="60" rx="0" ry="0"/>
      <text font-size="12.8" style="fill: #000000; fill-opacity: 1; stroke: none;text-anchor:middle;font-family:sans-serif;font-style:normal;font-weight:normal" x="120" y="-196.949">
        <tspan x="120" y="-196.949"></tspan>
      </text>
      <path style="fill: #f7f5cc; fill-opacity: 1; stroke-opacity: 1; stroke-width: 2; stroke: #000000" fill-rule="evenodd" d="M 98.45 -220.83 L 140.7,-220.83 L 149.15,-200.83 L 140.7,-180.83 L 98.45,-180.83 L 90,-200.83 L 98.45,-220.83z"/>
      <text font-size="12.8" style="fill: #000000; fill-opacity: 1; stroke: none;text-anchor:middle;font-family:sans-serif;font-style:normal;font-weight:700" x="119.575" y="-196.949">
        <tspan x="119.575" y="-196.949">Song</tspan>
      </text>
    </g>
    <ellipse style="fill: #ff8686; fill-opacity: 1; stroke-opacity: 1; stroke-width: 2; stroke: #000000" cx="191.016" cy="-62.5" rx="17.5" ry="17.5"/>
    <g>
      <path style="fill: none; stroke-opacity: 1; stroke-width: 2; stroke: #000000" d="M 191.016 -45 C 200,0 -40,0 -139.011,4.50052"/>
      <polygon style="fill: #000000; fill-opacity: 1; stroke-opacity: 1; stroke-width: 2; stroke: #000000" fill-rule="evenodd" points="-139.238,-0.494327 -149.001,4.95459 -138.784,9.49536 "/>
    </g>
    <g>
      <path style="fill: none; stroke-opacity: 1; stroke-width: 2; stroke: #000000" d="M -164.018 -221.761 C -101.518,-219.261 -40.9857,-54.7198 68.1044,-68.7739"/>
      <polygon style="fill: #000000; fill-opacity: 1; stroke-opacity: 1; stroke-width: 2; stroke: #000000" fill-rule="evenodd" points="68.7433,-63.8149 78.0225,-70.0516 67.4656,-73.7329 "/>
    </g>
    <g>
      <rect style="fill: #ff8686; fill-opacity: 1; stroke-opacity: 1; stroke-width: 2; stroke: #000000" x="110" y="320" width="130" height="60" rx="0" ry="0"/>
      <text font-size="12.8" style="fill: #000000; fill-opacity: 1; stroke: none;text-anchor:middle;font-family:sans-serif;font-style:normal;font-weight:normal" x="175" y="353.881">
        <tspan x="175" y="353.881"></tspan>
      </text>
      <path style="fill: #f7f5cc; fill-opacity: 1; stroke-opacity: 1; stroke-width: 2; stroke: #000000" fill-rule="evenodd" d="M 135.36 330 L 212.16,330 L 227.52,350 L 212.16,370 L 135.36,370 L 120,350 L 135.36,330z"/>
      <text font-size="12.8" style="fill: #000000; fill-opacity: 1; stroke: none;text-anchor:middle;font-family:sans-serif;font-style:normal;font-weight:700" x="173.76" y="353.881">
        <tspan x="173.76" y="353.881">Character</tspan>
      </text>
    </g>
    <ellipse style="fill: #ff8686; fill-opacity: 1; stroke-opacity: 1; stroke-width: 2; stroke: #000000" cx="-182.5" cy="-222.5" rx="17.5" ry="17.5"/>
    <g>
      <path style="fill: none; stroke-opacity: 1; stroke-width: 2; stroke: #000000" d="M -90 -89.498 C -10,-100 220,-148.079 269.047,-143.518"/>
      <polygon style="fill: #000000; fill-opacity: 1; stroke-opacity: 1; stroke-width: 2; stroke: #000000" fill-rule="evenodd" points="268.584,-138.54 279.004,-142.593 269.51,-148.497 "/>
    </g>
    <g>
      <rect style="fill: #ff8686; fill-opacity: 1; stroke-opacity: 1; stroke-width: 2; stroke: #000000" x="100" y="240" width="90" height="60" rx="0" ry="0"/>
      <text font-size="12.8" style="fill: #000000; fill-opacity: 1; stroke: none;text-anchor:middle;font-family:sans-serif;font-style:normal;font-weight:normal" x="145" y="273.881">
        <tspan x="145" y="273.881"></tspan>
      </text>
    </g>
    <g>
      <path style="fill: #f7f5cc; fill-opacity: 1; stroke-opacity: 1; stroke-width: 2; stroke: #000000" fill-rule="evenodd" d="M 118.45 170 L 160.7,170 L 169.15,190 L 160.7,210 L 118.45,210 L 110,190 L 118.45,170z"/>
      <text font-size="12.8" style="fill: #000000; fill-opacity: 1; stroke: none;text-anchor:middle;font-family:sans-serif;font-style:normal;font-weight:700" x="139.575" y="193.881">
        <tspan x="139.575" y="193.881">Song</tspan>
      </text>
    </g>
    <g>
      <path style="fill: #f7f5cc; fill-opacity: 1; stroke-opacity: 1; stroke-width: 2; stroke: #000000" fill-rule="evenodd" d="M 118.45 250 L 160.7,250 L 169.15,270 L 160.7,290 L 118.45,290 L 110,270 L 118.45,250z"/>
      <text font-size="12.8" style="fill: #000000; fill-opacity: 1; stroke: none;text-anchor:middle;font-family:sans-serif;font-style:normal;font-weight:700" x="139.575" y="273.881">
        <tspan x="139.575" y="273.881">Song</tspan>
      </text>
    </g>
    <g>
      <path style="fill: #f7f5cc; fill-opacity: 1; stroke-opacity: 1; stroke-width: 2; stroke: #000000" fill-rule="evenodd" d="M 358.45 84.9998 L 400.7,84.9998 L 409.15,105 L 400.7,125 L 358.45,125 L 350,105 L 358.45,84.9998z"/>
      <text font-size="12.8" style="fill: #000000; fill-opacity: 1; stroke: none;text-anchor:middle;font-family:sans-serif;font-style:normal;font-weight:700" x="379.575" y="108.881">
        <tspan x="379.575" y="108.881">Song</tspan>
      </text>
    </g>
    <g>
      <path style="fill: #f7f5cc; fill-opacity: 1; stroke-opacity: 1; stroke-width: 2; stroke: #000000" fill-rule="evenodd" d="M 358.45 165 L 400.7,165 L 409.15,185 L 400.7,205 L 358.45,205 L 350,185 L 358.45,165z"/>
      <text font-size="12.8" style="fill: #000000; fill-opacity: 1; stroke: none;text-anchor:middle;font-family:sans-serif;font-style:normal;font-weight:700" x="379.575" y="188.881">
        <tspan x="379.575" y="188.881">Song</tspan>
      </text>
    </g>
    <g>
      <path style="fill: #f7f5cc; fill-opacity: 1; stroke-opacity: 1; stroke-width: 2; stroke: #000000" fill-rule="evenodd" d="M 434.78 85.0002 L 512.18,85.0002 L 527.66,105 L 512.18,125 L 434.78,125 L 419.3,105 L 434.78,85.0002z"/>
      <text font-size="12.8" style="fill: #000000; fill-opacity: 1; stroke: none;text-anchor:middle;font-family:sans-serif;font-style:normal;font-weight:normal" x="473.48" y="108.881">
        <tspan x="473.48" y="108.881">Sequenced</tspan>
      </text>
    </g>
    <g>
      <path style="fill: #f7f5cc; fill-opacity: 1; stroke-opacity: 1; stroke-width: 2; stroke: #000000" fill-rule="evenodd" d="M 435.48 165 L 512.88,165 L 528.36,185 L 512.88,205 L 435.48,205 L 420,185 L 435.48,165z"/>
      <text font-size="12.8" style="fill: #000000; fill-opacity: 1; stroke: none;text-anchor:middle;font-family:sans-serif;font-style:normal;font-weight:normal" x="474.18" y="188.881">
        <tspan x="474.18" y="188.881">Sequenced</tspan>
      </text>
    </g>
    <g>
      <path style="fill: #f7f5cc; fill-opacity: 1; stroke-opacity: 1; stroke-width: 2; stroke: #000000" fill-rule="evenodd" d="M -302.38 370 L -214.28,370 L -196.66,390 L -214.28,410 L -302.38,410 L -320,390 L -302.38,370z"/>
      <text font-size="12.8" style="fill: #000000; fill-opacity: 1; stroke: none;text-anchor:middle;font-family:sans-serif;font-style:normal;font-weight:700" x="-258.33" y="393.881">
        <tspan x="-258.33" y="393.881">Primary Tag</tspan>
      </text>
    </g>
  </g>
</svg>
